<!DOCTYPE svg PUBLIC "-//W3C//DTD SVG 20010904//EN" "http://www.w3.org/TR/2001/REC-SVG-20010904/DTD/svg10.dtd">
<svg version="1.0" xmlns="http://www.w3.org/2000/svg" width="428px" height="159px" viewBox="0 0 4280 1590" preserveAspectRatio="xMidYMid meet">
<g id="layer101" fill="#093464" stroke="none">
<path d="M3275 1447 c-150 -86 -361 -265 -465 -394 -74 -91 -138 -195 -147 -235 -5 -26 -8 -27 -77 -30 -59 -3 -71 -6 -74 -21 -8 -43 9 -47 218 -47 l198 0 53 -45 c40 -34 61 -45 86 -45 66 0 97 62 133 265 22 123 25 128 38 54 7 -36 12 -91 12 -123 0 -31 4 -87 9 -124 5 -37 15 -114 21 -172 26 -225 49 -328 74 -331 24 -3 41 4 49 18 8 12 11 12 25 1 45 -37 121 -58 206 -58 168 0 297 83 374 240 36 74 37 77 37 198 l0 122 58 0 c50 0 57 2 57 19 0 44 -23 51 -164 51 -74 0 -148 -3 -165 -6 -18 -4 -54 -27 -81 -51 -64 -58 -80 -54 -98 22 -46 191 -78 253 -125 240 -62 -19 -81 -88 -138 -512 -7 -51 -16 -93 -20 -93 -3 0 -9 28 -13 62 -4 35 -11 99 -16 143 -6 44 -14 134 -20 200 -23 288 -30 353 -46 432 -6 34 -41 49 -64 28 -20 -18 -20 -17 -49 -200 -22 -143 -58 -310 -73 -337 -14 -27 -39 -22 -79 18 -44 43 -84 53 -201 54 l-87 0 37 66 c91 163 262 334 489 490 35 24 73 44 84 44 11 0 48 -19 82 -42 184 -123 381 -311 460 -439 38 -62 45 -69 75 -69 24 0 32 4 32 18 0 30 -108 180 -194 270 -133 140 -400 342 -451 342 -11 0 -38 -11 -60 -23z m295 -644 c39 -162 53 -183 119 -183 28 0 63 23 119 78 19 18 34 22 92 22 l68 0 7 -65 c20 -181 -50 -322 -193 -392 -50 -24 -69 -28 -147 -28 -79 0 -97 4 -149 29 -58 28 -58 29 -52 65 8 49 33 226 46 331 6 47 15 101 21 121 5 20 9 43 9 52 0 23 18 67 28 67 5 0 19 -44 32 -97z"/>
<path d="M920 1390 c0 -18 30 -52 110 -122 41 -37 38 -48 -15 -48 -38 0 -45 -3 -45 -19 0 -29 44 -58 108 -72 31 -7 63 -17 70 -23 19 -14 72 -122 65 -130 -9 -9 -79 -7 -105 3 -13 5 -42 15 -66 22 -24 7 -47 20 -52 29 -8 15 -70 40 -99 40 -32 0 8 -112 49 -138 33 -20 164 -51 246 -58 129 -10 141 19 69 163 -22 43 -31 71 -25 77 24 24 -7 75 -55 90 -11 3 -42 34 -70 67 -89 109 -185 171 -185 119z"/>
<path d="M1548 1309 c-12 -7 -18 -22 -18 -46 l0 -36 -31 36 c-36 43 -51 46 -71 15 l-15 -22 -35 27 c-65 50 -118 26 -118 -52 0 -51 17 -85 63 -129 69 -66 100 -8 35 63 -38 42 -42 69 -12 73 23 3 84 -42 84 -63 0 -22 57 -75 80 -75 13 0 24 8 27 19 5 18 8 17 48 -11 44 -31 70 -32 81 -4 3 8 -11 38 -30 66 -38 55 -43 70 -25 70 10 0 28 -18 102 -99 35 -38 96 -71 134 -71 23 0 35 -11 67 -61 53 -82 64 -93 82 -78 22 18 18 30 -39 115 -53 81 -77 133 -77 172 0 45 50 13 84 -55 33 -65 117 -111 175 -96 15 4 21 13 21 34 0 22 -10 36 -42 60 -24 17 -58 37 -77 45 -28 12 -31 16 -21 29 18 22 50 18 95 -12 49 -33 55 -40 55 -77 0 -19 9 -37 28 -52 29 -26 43 -29 58 -15 5 5 27 11 49 13 32 2 41 7 43 24 2 12 -3 28 -10 35 -24 24 -48 63 -48 76 0 20 20 16 56 -12 23 -18 35 -22 40 -13 5 7 -13 30 -45 60 -63 58 -106 66 -117 21 -4 -14 -1 -40 5 -57 34 -83 25 -86 -50 -13 -30 29 -68 63 -86 75 -42 29 -99 29 -130 0 -20 -19 -27 -20 -41 -10 -9 7 -30 19 -47 27 -28 13 -31 13 -47 -7 -10 -11 -18 -29 -18 -40 0 -18 -4 -17 -39 11 -21 17 -44 31 -50 31 -6 0 -20 -14 -30 -31 -12 -20 -21 -27 -26 -19 -8 13 -85 70 -94 70 -3 0 -14 -5 -23 -11z m240 -111 c23 -18 42 -38 42 -45 0 -19 -76 21 -90 46 -22 42 -7 41 48 -1z m295 -62 c9 -7 17 -16 17 -19 0 -9 -33 5 -48 20 -19 18 6 17 31 -1z"/>
<path d="M1386 1051 c-9 -15 11 -58 30 -65 10 -4 24 -1 32 8 13 13 13 18 -2 40 -16 26 -49 35 -60 17z"/>
<path d="M140 758 c0 -19 36 -59 95 -107 17 -14 17 -16 -3 -29 -12 -8 -22 -20 -22 -26 0 -25 46 -56 81 -56 30 0 46 -12 129 -95 125 -126 159 -127 120 -4 -25 81 -25 99 -1 99 11 0 22 4 25 8 8 13 -22 51 -55 67 -20 11 -29 23 -29 40 0 14 3 25 6 25 18 0 45 -26 73 -69 18 -27 39 -52 47 -55 29 -11 43 -6 46 16 3 21 3 21 33 -4 17 -13 38 -27 47 -31 22 -8 39 14 31 43 -7 26 -2 24 55 -18 32 -24 33 -24 46 -6 15 20 11 33 -26 86 -10 15 -14 29 -9 32 14 9 71 -43 71 -65 0 -44 90 -171 162 -229 68 -54 84 -53 78 5 -2 19 -36 75 -87 142 l-25 33 25 0 c33 0 40 12 27 46 -7 17 -7 31 -2 36 11 11 17 4 63 -59 24 -33 37 -43 59 -43 44 0 43 13 -1 64 -68 77 -39 72 49 -9 76 -71 102 -84 102 -50 0 8 -14 34 -31 58 -17 25 -29 52 -27 61 6 31 46 -11 81 -87 39 -84 105 -170 146 -191 33 -18 41 -13 41 26 0 45 -38 113 -96 172 -56 56 -64 75 -39 96 19 15 50 -6 85 -58 46 -67 185 -141 212 -114 17 17 11 77 -12 115 -25 41 -25 49 2 45 13 -2 40 -27 66 -61 45 -59 66 -69 87 -41 10 15 16 14 53 -11 22 -15 46 -24 51 -20 19 11 12 47 -15 87 -15 21 -24 41 -21 44 12 13 37 -6 72 -55 42 -59 90 -91 134 -91 26 0 31 4 31 23 0 36 -27 67 -59 67 -33 0 -61 27 -61 58 0 18 6 22 30 22 22 0 40 -10 68 -41 114 -125 120 -129 167 -129 83 0 65 60 -33 113 -35 19 -49 32 -45 42 8 23 46 18 94 -14 49 -34 59 -33 36 3 -49 74 -149 105 -188 58 l-18 -23 -38 25 c-50 35 -88 34 -110 -1 -9 -16 -18 -30 -20 -32 -1 -2 -20 11 -41 28 -22 17 -46 31 -54 31 -19 0 -38 -20 -38 -42 0 -24 -13 -23 -35 2 -22 24 -44 26 -60 4 -10 -15 -16 -14 -53 11 -45 29 -71 28 -79 -5 -7 -26 -17 -25 -54 3 l-31 22 -24 -28 -23 -28 -42 31 c-51 37 -62 37 -93 3 l-24 -26 -33 27 c-39 33 -82 33 -87 -1 -4 -28 -10 -29 -38 -2 -28 26 -61 18 -70 -17 -5 -20 -11 -24 -28 -20 -11 3 -26 6 -32 6 -6 0 -29 14 -50 30 -47 38 -83 37 -102 -3 l-13 -28 -35 31 c-38 33 -74 39 -94 15 -10 -12 -10 -21 -1 -41 17 -39 14 -38 -31 5 -24 22 -51 41 -62 41 -17 0 -18 -5 -12 -46 l6 -46 -41 45 c-41 47 -63 51 -74 16 -6 -19 -8 -18 -37 6 -40 33 -75 42 -95 22 -13 -13 -14 -23 -5 -58 6 -24 9 -46 7 -50 -3 -3 -26 -4 -52 -1 -44 4 -54 11 -119 78 -73 76 -104 91 -104 52z m846 -95 c3 -16 9 -38 14 -50 12 -29 3 -29 -27 -1 -26 25 -32 78 -8 78 8 0 17 -12 21 -27z m639 -33 c31 -32 35 -40 20 -40 -24 0 -85 47 -85 66 0 25 25 15 65 -26z m665 -45 c7 -8 8 -15 2 -15 -5 0 -15 7 -22 15 -7 8 -8 15 -2 15 5 0 15 -7 22 -15z m-1263 -12 c-4 -3 -10 -3 -14 0 -3 4 0 7 7 7 7 0 10 -3 7 -7z m-573 -41 c2 -4 7 -25 11 -47 l7 -40 -41 40 c-22 21 -41 43 -41 47 0 10 57 11 64 0z m1013 -19 c-4 -3 -7 0 -7 7 0 7 3 10 7 7 3 -4 3 -10 0 -14z m20 -30 c-4 -3 -7 0 -7 7 0 7 3 10 7 7 3 -4 3 -10 0 -14z"/>
</g>
<g id="layer102" fill="#074182" stroke="none">
<path d="M940 1381 c0 -15 51 -71 64 -71 18 0 74 -62 78 -85 3 -18 -2 -20 -45 -17 -42 3 -48 1 -45 -15 4 -21 62 -52 100 -53 48 0 73 -20 107 -81 24 -43 31 -67 27 -85 -6 -24 -9 -25 -64 -19 -31 4 -68 10 -82 15 -14 5 -36 11 -50 14 -14 3 -41 19 -60 36 -32 29 -80 41 -80 20 0 -14 40 -84 54 -92 11 -7 67 -25 152 -47 23 -6 73 -11 113 -11 l71 0 0 31 c0 18 -18 67 -40 110 -34 67 -38 82 -28 98 15 24 -1 46 -47 65 -18 8 -43 29 -56 47 -34 48 -140 149 -156 149 -7 0 -13 -4 -13 -9z"/>
<path d="M1290 1278 c-24 -26 -25 -53 -6 -99 18 -44 45 -74 74 -83 34 -11 28 15 -18 67 -22 25 -40 52 -40 61 0 21 30 35 63 29 36 -7 34 3 -5 27 -41 25 -43 25 -68 -2z"/>
<path d="M1543 1284 c-3 -8 2 -33 12 -55 10 -21 15 -42 12 -46 -4 -3 -30 17 -57 45 -52 54 -70 63 -70 37 0 -9 -10 -20 -22 -25 -13 -5 -18 -9 -13 -9 6 -1 26 -26 45 -56 21 -32 42 -55 53 -55 22 0 22 1 -8 36 -23 26 -34 64 -19 64 3 0 36 -27 72 -60 92 -83 139 -79 72 5 -39 49 -40 85 -3 85 l26 0 -29 25 c-33 28 -62 32 -71 9z"/>
<path d="M1840 1264 c0 -27 -5 -37 -20 -41 -18 -5 -18 -7 9 -40 47 -57 31 -71 -45 -37 -64 28 -88 95 -36 102 22 3 23 4 5 17 -28 22 -39 18 -57 -20 -16 -33 -16 -37 1 -65 25 -43 90 -83 138 -85 38 -2 42 -6 88 -74 26 -39 52 -71 58 -71 16 0 1 38 -36 89 -51 71 -71 112 -78 158 -6 36 -4 46 12 60 19 15 19 17 3 29 -30 23 -42 16 -42 -22z"/>
<path d="M1972 1270 c-9 -16 -21 -30 -25 -30 -12 0 42 -92 68 -117 13 -13 32 -23 42 -23 15 0 14 2 -5 16 -32 22 -47 54 -31 65 11 6 10 9 -4 15 -21 8 -22 40 -3 60 8 8 30 14 48 14 l33 0 -29 15 c-45 24 -75 19 -94 -15z"/>
<path d="M2236 1285 c-9 -24 4 -72 25 -91 11 -9 19 -23 19 -31 0 -18 -45 -17 -75 3 -24 16 -25 16 -25 -8 0 -34 37 -71 64 -64 11 3 38 6 59 6 20 0 37 4 37 10 0 5 -16 30 -35 56 -40 52 -45 83 -15 91 25 7 25 12 3 29 -24 18 -50 17 -57 -1z"/>
<path d="M2093 1253 c4 -3 10 -3 14 0 3 4 0 7 -7 7 -7 0 -10 -3 -7 -7z"/>
<path d="M3212 1228 c-6 -13 -18 -68 -27 -123 -17 -106 -42 -237 -56 -295 -4 -19 -11 -48 -15 -65 -8 -34 -31 -65 -50 -65 -7 0 -36 20 -65 45 l-53 45 -214 0 c-166 0 -213 -3 -210 -12 4 -10 56 -14 205 -16 l200 -2 52 -45 c40 -34 61 -45 86 -45 55 0 71 25 104 170 26 116 30 139 37 198 3 34 10 62 15 62 20 0 32 -52 41 -174 11 -169 24 -311 37 -411 32 -239 43 -285 71 -285 28 0 45 61 70 260 40 318 60 424 84 448 20 20 27 12 45 -52 7 -22 17 -55 22 -72 5 -17 9 -40 9 -51 0 -35 42 -103 68 -110 29 -7 53 6 116 63 l50 44 153 0 c129 0 153 2 153 15 0 13 -25 15 -163 15 l-164 0 -58 -51 c-31 -27 -65 -49 -74 -47 -20 4 -50 63 -51 100 0 15 -4 37 -9 50 -5 13 -15 43 -22 68 -23 83 -58 112 -93 78 -33 -34 -61 -168 -95 -453 -15 -129 -31 -188 -47 -172 -16 16 -43 241 -74 622 -16 195 -24 251 -39 269 -18 21 -26 20 -39 -6z"/>
<path d="M1773 1233 c4 -3 10 -3 14 0 3 4 0 7 -7 7 -7 0 -10 -3 -7 -7z"/>
<path d="M2109 1137 c17 -22 8 -44 -21 -50 -15 -3 -11 -5 14 -6 54 -2 63 29 15 58 -20 13 -21 13 -8 -2z"/>
<path d="M1400 1036 c0 -16 28 -42 36 -33 8 7 -14 47 -26 47 -6 0 -10 -6 -10 -14z"/>
<path d="M169 731 c12 -22 60 -55 69 -47 8 9 -49 66 -65 66 -10 0 -11 -5 -4 -19z"/>
<path d="M423 698 c3 -18 9 -45 12 -59 5 -20 2 -28 -10 -33 -29 -11 -117 6 -136 25 -19 19 -19 18 -19 0 0 -11 -9 -23 -20 -26 -44 -14 -1 -61 45 -49 16 4 35 0 50 -10 22 -14 25 -15 25 -1 0 17 50 21 80 5 25 -14 57 -115 41 -134 -10 -11 -6 -18 19 -36 l30 -21 0 23 c0 13 -9 47 -20 76 -28 73 -26 92 6 92 25 0 26 1 12 22 -9 13 -26 25 -38 28 -16 4 -27 18 -36 43 -12 34 -11 38 6 49 24 16 8 38 -27 38 -23 0 -25 -3 -20 -32z"/>
<path d="M665 721 c-3 -6 5 -32 19 -57 30 -54 32 -64 11 -64 -11 0 -10 -6 7 -25 21 -25 48 -34 48 -16 0 5 -7 25 -15 45 -14 32 -14 36 0 36 24 0 18 13 -24 54 -25 24 -41 34 -46 27z"/>
<path d="M775 708 c3 -13 11 -33 17 -45 8 -16 8 -26 -1 -37 -9 -11 -5 -19 20 -40 17 -14 35 -24 40 -20 10 6 -14 58 -31 69 -18 11 -11 57 10 62 16 4 17 7 5 19 -7 8 -25 14 -40 14 -23 0 -25 -3 -20 -22z"/>
<path d="M914 713 c-3 -10 -10 -26 -15 -35 -5 -11 -5 -19 1 -23 6 -3 10 -15 10 -26 0 -36 43 -111 93 -163 38 -39 43 -43 24 -15 -46 64 -66 106 -56 116 6 6 2 19 -11 35 -12 15 -20 41 -20 62 0 32 3 36 25 36 26 0 45 -25 45 -58 0 -22 36 -72 52 -72 6 0 7 10 2 28 -4 15 -7 37 -7 50 1 15 -8 27 -26 37 -15 7 -33 21 -40 29 -18 22 -70 21 -77 -1z"/>
<path d="M1125 694 c-15 -33 -15 -36 4 -67 33 -54 59 -79 78 -75 14 3 11 10 -20 40 -41 42 -52 80 -25 86 11 2 46 -24 93 -68 42 -40 79 -69 83 -66 3 4 2 10 -4 14 -6 4 -23 25 -37 47 -33 48 -35 85 -7 92 30 8 6 33 -31 33 -26 0 -29 -4 -29 -30 0 -35 -10 -38 -36 -9 -37 41 -50 42 -69 3z"/>
<path d="M1368 694 c-11 -24 -14 -42 -8 -53 5 -9 21 -41 34 -71 14 -30 37 -68 51 -84 29 -34 33 -26 7 12 -31 46 -43 80 -29 85 8 3 7 10 -5 24 -30 33 -21 93 14 93 17 0 18 3 8 15 -23 27 -54 18 -72 -21z"/>
<path d="M1650 701 c0 -17 -4 -33 -10 -36 -15 -10 -12 -17 21 -53 44 -47 26 -64 -35 -32 -61 31 -86 56 -86 87 0 23 3 25 33 19 l32 -6 -24 20 c-31 27 -38 25 -56 -10 -14 -26 -14 -33 -1 -58 25 -48 95 -95 159 -107 l35 -7 -3 37 c-2 20 -11 47 -19 60 -22 34 -20 66 4 72 11 3 20 7 20 10 0 12 -31 33 -49 33 -17 0 -21 -6 -21 -29z"/>
<path d="M1882 698 c3 -18 8 -41 13 -50 14 -34 -21 -19 -64 29 l-43 46 -14 -32 c-13 -31 -12 -35 17 -77 16 -24 37 -44 45 -44 12 0 11 6 -6 30 -12 17 -19 38 -16 47 5 13 11 10 35 -14 37 -39 95 -83 109 -83 19 0 14 18 -18 62 -33 45 -38 75 -15 84 21 8 0 34 -27 34 -17 0 -19 -5 -16 -32z"/>
<path d="M2016 696 c-19 -41 -12 -67 30 -111 27 -28 73 -55 94 -55 16 0 12 46 -5 60 -8 6 -20 10 -27 7 -19 -6 -65 23 -76 49 -16 34 6 58 53 56 31 -1 35 1 25 13 -7 8 -27 15 -45 15 -27 0 -35 -6 -49 -34z"/>
<path d="M2187 701 c-13 -22 -15 -36 -8 -54 13 -35 70 -97 88 -97 10 0 7 7 -11 21 -17 14 -26 29 -24 43 2 11 -4 26 -12 33 -24 19 0 47 44 51 31 3 34 5 22 18 -8 8 -30 14 -48 14 -27 0 -37 -6 -51 -29z"/>
<path d="M559 697 c-10 -21 -9 -32 5 -59 23 -48 41 -68 60 -68 14 0 14 2 -2 21 -9 12 -23 27 -29 34 -18 19 -6 50 13 34 26 -21 16 16 -11 41 l-24 23 -12 -26z"/>
<path d="M630 640 c0 -7 3 -10 7 -7 3 4 3 10 0 14 -4 3 -7 0 -7 -7z"/>
<path d="M2330 568 c0 -9 -8 -22 -17 -27 -15 -9 -14 -10 10 -11 28 0 34 14 17 40 -8 13 -10 13 -10 -2z"/>
<path d="M1520 463 c0 -12 -4 -24 -10 -28 -15 -9 0 -35 21 -35 10 0 19 1 19 3 0 1 -7 20 -15 42 -9 27 -14 33 -15 18z"/>
<path d="M1480 440 c0 -7 3 -10 7 -7 3 4 3 10 0 14 -4 3 -7 0 -7 -7z"/>
<path d="M1094 406 c-11 -23 2 -46 26 -46 13 0 13 12 -3 43 l-13 24 -10 -21z"/>
</g>
<g id="layer103" fill="#ff0021" stroke="none">
<path d="M3275 1447 c-136 -78 -353 -257 -445 -368 -93 -112 -170 -238 -170 -279 0 -15 6 -20 28 -20 25 0 33 9 67 70 91 167 262 338 492 496 35 24 73 44 84 44 11 0 48 -19 82 -42 184 -123 381 -311 460 -439 38 -62 45 -69 75 -69 24 0 32 4 32 18 0 30 -108 180 -194 270 -133 140 -400 342 -451 342 -11 0 -38 -11 -60 -23z"/>
<path d="M3979 723 c-1 -4 -2 -60 -3 -123 -1 -105 -4 -120 -30 -173 -38 -74 -92 -129 -164 -164 -50 -24 -69 -28 -147 -28 -79 0 -97 4 -148 29 -32 15 -60 26 -61 25 -14 -17 -13 -58 2 -71 45 -37 120 -58 206 -58 167 0 298 84 372 237 30 61 36 87 40 160 3 49 2 106 -3 128 -7 33 -13 41 -36 43 -15 2 -28 0 -28 -5z"/>
<path d="M2615 639 c-8 -34 1 -125 16 -179 53 -182 212 -300 404 -300 120 0 235 54 235 110 0 41 -14 45 -57 16 -140 -92 -326 -68 -438 57 -57 63 -87 140 -93 245 -5 82 -5 82 -32 82 -24 0 -30 -5 -35 -31z"/>
</g>


</svg>